<svg width="153" height="407" viewBox="0 0 153 407" fill="none" xmlns="http://www.w3.org/2000/svg">
<path fill-rule="evenodd" clip-rule="evenodd" d="M89.0638 1.91418C76.1868 8.77218 64.0278 32.5962 60.0858 58.6922C57.8828 73.2802 59.3948 96.0882 63.8858 116C64.9398 120.675 65.7348 124.577 65.6508 124.67C65.5678 124.764 57.1748 133.316 46.9998 143.674C25.8938 165.16 15.4258 178.409 8.69479 192.154C2.45079 204.905 0.0347843 214.796 0.0147843 227.685C-0.0142157 246.849 4.59878 261.341 15.5508 276.5C32.7558 300.311 54.4908 312.056 81.1768 311.964C86.8548 311.945 94.1998 311.277 97.4998 310.48C100.8 309.683 103.98 309.024 104.567 309.016C105.153 309.007 106.223 312.038 106.944 315.75C107.665 319.463 109.101 325.955 110.135 330.177C113.839 345.309 115.259 354.642 115.203 363.5C115.115 377.58 111.231 385.865 101.651 392.413C89.7648 400.537 69.5248 401.52 61.0448 394.385C56.5608 390.611 57.1318 389.377 63.7208 388.603C74.5038 387.336 81.5218 380.846 82.6748 371.079C83.7438 362.024 79.7548 353.724 71.7478 348.342C65.6498 344.243 60.5578 343.405 53.7598 345.381C33.7648 351.194 28.5338 377.425 44.2528 393.061C57.0428 405.784 74.7448 409.47 94.5838 403.541C104.749 400.503 114.702 391.864 119.403 382C122.354 375.807 122.5 374.91 122.5 363C122.5 351.9 122.028 348.427 118.283 332C115.963 321.825 113.795 311.7 113.465 309.5L112.864 305.5L120.682 301.558C135.226 294.225 147.521 279.031 150.631 264.549C154.93 244.529 149.814 225.26 136.433 211.076C125.476 199.461 112.665 194.344 96.5778 195.156C90.4208 195.467 88.9058 195.253 88.5518 194.02C88.3118 193.184 86.4678 184.29 84.4538 174.256L80.7918 156.011L87.9098 148.389C107.302 127.625 118.036 104.6 120.967 77.4812C123.016 58.5212 118.038 36.1592 106.789 13.7852C99.9718 0.225182 96.5438 -2.06982 89.0638 1.91418ZM90.4998 36.9292C84.2628 40.5582 80.8548 44.8812 76.0018 55.3182C72.2468 63.3932 69.6678 73.2672 68.5118 84.0002C67.5418 93.0152 71.0348 118 73.2658 118C74.9248 118 88.9928 103.746 94.0118 96.9792C104.412 82.9602 109.309 71.8092 111.132 58.0002C112.526 47.4382 111.381 42.4472 106.426 37.4932C101.923 32.9902 97.5348 32.8342 90.4998 36.9292ZM65.9998 167.641C54.8278 177.322 37.1798 195.96 32.4528 203.071C26.8458 211.505 21.1318 223.721 19.3878 231C18.6638 234.025 18.0548 240.931 18.0358 246.346C17.9768 262.434 22.0378 273.044 32.3788 283.821C43.6058 295.523 58.9548 302.591 75.4988 303.678C88.1318 304.507 101.958 303.274 102.735 301.248C103.441 299.409 101.801 290.806 92.4888 247.5C91.0698 240.9 89.4428 233.025 88.8738 230C88.3038 226.975 87.5088 224.156 87.1058 223.737C85.6838 222.255 74.1138 229.08 69.6728 234.018C63.4308 240.962 61.6368 245.205 61.1868 254.096C60.8738 260.271 61.1808 262.435 62.8288 265.664C65.3238 270.556 71.6038 276.348 77.5368 279.23C80.3658 280.605 81.9998 282.058 81.9998 283.199C81.9998 288.393 67.6198 281.71 59.5068 272.745C52.8068 265.341 49.4238 258.509 47.8168 249.137C46.7718 243.043 46.8488 241.091 48.3908 234.547C51.5688 221.067 62.7218 207.014 75.4828 200.408C81.9528 197.059 81.7528 199.377 77.3788 178.5C75.9968 171.9 74.6618 165.488 74.4138 164.25C74.1648 163.012 73.6328 162.002 73.2308 162.004C72.8288 162.007 69.5748 164.543 65.9998 167.641ZM95.0438 223.637C95.0848 224.459 95.3728 225.869 97.8728 237.5C100.301 248.795 104.141 267.086 105.956 276C108.579 288.887 110.771 298.104 111.349 298.683C112.869 300.202 122.565 292.565 127.728 285.782C142.898 265.85 136.451 237.932 114.009 226.368C110.011 224.308 106.679 223.434 101.759 223.156C98.0408 222.946 95.0198 223.163 95.0438 223.637Z" fill="black"/>
</svg>
